# xmcd CD database file
#
# Track frame offsets:
#	150
#	52052
#	73632
#	120894
#
# Disc length: 2163 seconds
#
# Revision: 0
# Processed by: cddbd v1.5.2PL0 Copyright (c) Steve Scherf et al.
# Submitted via: CDex 1.70beta2
#
DISCID=30087104
DTITLE=Zenzile - Zenzile featuring Marion Brown
DYEAR=2976
DGENRE=Jazz
TTITLE0=Sweet Earth Flying
TTITLE1=I Think You Really Like Me
TTITLE2=Piece of Ground
TTITLE3=Long Distance
EXTD=YEAR: 2976
EXTT0=
EXTT1=
EXTT2=
EXTT3=
PLAYORDER=
